<?xml version="1.0" encoding="utf-8"?>
<!-- Generator: Adobe Illustrator 27.1.1, SVG Export Plug-In . SVG Version: 6.00 Build 0)  -->
<svg version="1.1" id="Слой_1" xmlns="http://www.w3.org/2000/svg" xmlns:xlink="http://www.w3.org/1999/xlink" x="0px" y="0px"
	 viewBox="0 0 311 259" style="enable-background:new 0 0 311 259;" xml:space="preserve">
<style type="text/css">
	.st0{fill:#FCC647;}
	.st1{fill:#F33D30;}
</style>
<path class="st0" d="M261.1,197.6c-0.2-1.3-0.4-2.6-0.6-3.9l2-0.4c0.2,1.3,0.5,2.7,0.6,4L261.1,197.6z M259.7,189.8
	c-0.3-1.3-0.6-2.6-0.9-3.9l1.9-0.5c0.3,1.3,0.7,2.6,1,3.9L259.7,189.8z M257.7,182.1c-0.4-1.3-0.8-2.5-1.2-3.8l1.9-0.6
	c0.4,1.3,0.8,2.6,1.2,3.8L257.7,182.1z M255.1,174.6c-0.5-1.2-1-2.5-1.5-3.7l1.8-0.8c0.5,1.2,1,2.5,1.5,3.8L255.1,174.6z
	 M150.2,170.2l0-2c1.3,0,2.6-0.1,3.9-0.2l0.2,2C153,170.1,151.6,170.2,150.2,170.2z M146.1,170c-0.4,0-0.9-0.1-1.3-0.2
	c-0.9-0.1-1.8-0.3-2.7-0.5l0.4-2c0.9,0.2,1.7,0.3,2.6,0.5c0.4,0.1,0.8,0.1,1.2,0.2L146.1,170z M158.4,169.3l-0.4-2
	c1.3-0.3,2.5-0.6,3.8-1l0.6,1.9C161,168.6,159.7,169,158.4,169.3z M138.1,168.3c-1.3-0.4-2.6-0.8-3.9-1.3l0.7-1.9
	c1.2,0.5,2.5,0.9,3.7,1.3L138.1,168.3z M252.1,167.3c-0.6-1.2-1.1-2.4-1.7-3.6l1.8-0.9c0.6,1.2,1.2,2.4,1.8,3.6L252.1,167.3z
	 M166.2,166.8l-0.8-1.8c1.2-0.5,2.4-1.1,3.5-1.7l0.9,1.8C168.7,165.7,167.4,166.3,166.2,166.8z M130.5,165.4
	c-1.2-0.6-2.4-1.2-3.6-1.9l1-1.7c1.1,0.7,2.3,1.3,3.5,1.8L130.5,165.4z M173.4,163l-1.1-1.7c1.1-0.7,2.2-1.5,3.2-2.3l1.2,1.6
	C175.6,161.4,174.5,162.2,173.4,163z M123.5,161.3c-1.1-0.8-2.2-1.6-3.2-2.5l1.3-1.5c1,0.8,2,1.6,3.1,2.4L123.5,161.3z M248.5,160.2
	c-0.6-1.2-1.3-2.3-2-3.4l1.7-1c0.7,1.1,1.4,2.3,2,3.5L248.5,160.2z M179.8,157.9l-1.4-1.5c1-0.9,1.9-1.8,2.7-2.8l1.5,1.3
	C181.8,156,180.8,157,179.8,157.9z M117.3,155.9c-1-1-1.8-2.1-2.6-3.2l1.6-1.1c0.7,1,1.5,2,2.4,3L117.3,155.9z M244.4,153.5
	c-0.7-1.1-1.5-2.2-2.2-3.3l1.6-1.2c0.8,1.1,1.6,2.2,2.3,3.3L244.4,153.5z M185.3,151.9l-1.6-1.2c0.8-1,1.5-2.1,2.2-3.2l1.7,1.1
	C186.9,149.7,186.1,150.8,185.3,151.9z M112.6,149.1c-0.6-1.3-1.1-2.7-1.3-4l2-0.4c0.2,1.2,0.6,2.4,1.2,3.6L112.6,149.1z M239.8,147
	c-0.8-1-1.7-2.1-2.5-3.1l1.5-1.3c0.9,1,1.7,2.1,2.6,3.1L239.8,147z M189.6,144.9l-1.8-0.9c0.6-1.2,1.1-2.4,1.6-3.6l1.9,0.7
	C190.8,142.5,190.2,143.7,189.6,144.9z M234.6,141c-0.9-1-1.8-1.9-2.8-2.8l1.4-1.4c1,0.9,1.9,1.9,2.8,2.9L234.6,141z M112.9,141
	l-2-0.2c0.1-1.4,0.4-2.8,1-4.2l1.9,0.7C113.3,138.6,113,139.8,112.9,141z M192.6,137.3l-1.9-0.6c0.4-1.2,0.7-2.5,0.9-3.8l2,0.4
	C193.3,134.7,192.9,136,192.6,137.3z M228.9,135.5c-1-0.9-2-1.7-3-2.5l1.2-1.6c1.1,0.8,2.1,1.7,3.1,2.6L228.9,135.5z M115.6,134.1
	L114,133c0.8-1.1,1.7-2.1,2.8-3.1l1.4,1.5C117.1,132.2,116.3,133.2,115.6,134.1z M222.8,130.6c-1.1-0.8-2.2-1.5-3.3-2.2l1.1-1.7
	c1.1,0.7,2.3,1.5,3.4,2.3L222.8,130.6z M194.1,129.3l-2-0.2c0.1-1.3,0.2-2.6,0.2-3.9l2,0C194.3,126.6,194.3,128,194.1,129.3z
	 M121.1,128.9l-1.1-1.6c1.1-0.7,2.2-1.5,3.5-2.2l1,1.8C123.2,127.5,122.1,128.2,121.1,128.9z M216.1,126.4c-1.1-0.6-2.3-1.3-3.5-1.9
	l0.9-1.8c1.2,0.6,2.4,1.2,3.6,1.9L216.1,126.4z M127.9,125.1l-0.8-1.8c1.2-0.5,2.5-1.1,3.8-1.5l0.7,1.9
	C130.3,124.1,129.1,124.6,127.9,125.1z M209.1,122.9c-1.2-0.5-2.4-1-3.7-1.5l0.7-1.9c1.3,0.5,2.5,1,3.8,1.5L209.1,122.9z
	 M135.3,122.3l-0.6-1.9c1.2-0.4,2.5-0.8,3.9-1.1l0.5,1.9C137.8,121.6,136.5,122,135.3,122.3z M192.2,121.3c-0.1-1.2-0.2-2.4-0.4-3.6
	c-0.6-0.1-1.1-0.2-1.7-0.3l0.3-2c1.3,0.2,2.7,0.5,4,0.7l-0.4,2c0,0-0.1,0-0.1,0c0.1,1,0.2,2.1,0.3,3.1L192.2,121.3z M142.9,120.3
	l-0.5-1.9c1.3-0.3,2.6-0.6,3.9-0.8l0.4,2C145.5,119.7,144.2,120,142.9,120.3z M201.7,120.1c-1.2-0.4-2.5-0.8-3.8-1.1l0.5-1.9
	c1.3,0.3,2.6,0.7,3.9,1.1L201.7,120.1z M150.7,118.7l-0.3-2c1.3-0.2,2.6-0.4,4-0.6l0.3,2C153.3,118.3,152,118.5,150.7,118.7z
	 M158.6,117.5l-0.2-2c1.3-0.2,2.6-0.3,4-0.5l0.2,2C161.2,117.2,159.9,117.4,158.6,117.5z M186.3,116.8c-1.3-0.1-2.6-0.3-3.9-0.4
	l0.1-2c1.3,0.1,2.7,0.2,4,0.4L186.3,116.8z M166.5,116.7l-0.2-2c1.3-0.1,2.7-0.2,4-0.3l0.1,2C169.1,116.5,167.8,116.6,166.5,116.7z
	 M178.4,116.3c-1.3,0-2.6,0-4,0l0-2c1.4,0,2.7,0,4,0L178.4,116.3z M191.1,113.6c-0.3-1.3-0.6-2.5-1-3.8l1.9-0.6
	c0.4,1.3,0.8,2.6,1,3.9L191.1,113.6z M188.8,106c-0.5-1.2-1-2.4-1.5-3.6l1.8-0.8c0.6,1.3,1.1,2.5,1.5,3.8L188.8,106z M185.6,98.8
	c-0.6-1.1-1.2-2.3-1.9-3.5l1.7-1c0.7,1.2,1.3,2.4,2,3.5L185.6,98.8z M181.6,92c-0.7-1.1-1.5-2.2-2.2-3.3l1.6-1.2
	c0.8,1.1,1.6,2.2,2.3,3.3L181.6,92z M177,85.6l-0.4-0.6c-0.7-0.9-1.4-1.7-2.1-2.5l1.5-1.3c0.7,0.8,1.4,1.7,2.1,2.6l0.4,0.6L177,85.6
	z M171.8,79.7c-1-0.9-2-1.8-2.9-2.5l1.2-1.6c1,0.8,2.1,1.7,3.1,2.7L171.8,79.7z M119.4,79.2c-1.4,0-2.7-0.2-4.1-0.4l0.3-2
	c1.3,0.2,2.6,0.3,3.9,0.3L119.4,79.2z M123.5,79.1l-0.1-2c1.3-0.1,2.6-0.2,3.9-0.5l0.3,2C126.2,78.9,124.9,79,123.5,79.1z
	 M111.3,78.1c-1.3-0.3-2.6-0.7-3.9-1.2l0.7-1.9c1.2,0.4,2.5,0.8,3.7,1.1L111.3,78.1z M131.6,77.9l-0.5-1.9c1.2-0.3,2.4-0.6,3.8-1
	l0.5,1.9C134.1,77.2,132.8,77.6,131.6,77.9z M139.4,75.7l-0.6-1.9l0.9-0.3c1-0.3,2-0.6,3-0.9l0.6,1.9c-1,0.3-2,0.6-3,0.9L139.4,75.7
	z M103.6,75.3c-1.2-0.6-2.4-1.2-3.6-1.9l1-1.7c1.2,0.7,2.3,1.3,3.5,1.8L103.6,75.3z M165.6,75c-1.1-0.6-2.3-1.2-3.5-1.6l0.7-1.9
	c1.3,0.4,2.5,1,3.8,1.7L165.6,75z M147,73.5l-0.5-1.9c1.4-0.4,2.8-0.6,4-0.8l0.3,2C149.6,72.9,148.4,73.1,147,73.5z M158.5,72.5
	c-1.2-0.2-2.5-0.3-3.8-0.2l0-2c1.4,0,2.8,0,4.2,0.3L158.5,72.5z M96.5,71.3c-1.1-0.7-2.2-1.5-3.3-2.3l1.2-1.6
	c1.1,0.8,2.2,1.6,3.2,2.3L96.5,71.3z M90,66.5c-1-0.8-2-1.7-3.1-2.6l1.3-1.5c1,0.9,2,1.8,3,2.6L90,66.5z M84,61.1
	c-0.9-0.9-1.9-1.9-2.9-2.8l1.4-1.4c0.9,1,1.9,1.9,2.8,2.8L84,61.1z M78.4,55.4c-0.9-1-1.8-2-2.7-3l1.5-1.3c0.9,1,1.8,2,2.6,3
	L78.4,55.4z"/>
<path class="st1" d="M62.3,37.9c-0.1-2.1,1.9-3.6,3.9-3l18.4,5.8c2.3,0.7,2.8,3.8,0.9,5.2L67.9,59.5c-1.9,1.5-4.7,0.2-4.8-2.3
	L62.3,37.9z"/>
</svg>
