<?xml version="1.0" encoding="utf-8"?>
<!-- Generator: Adobe Illustrator 27.1.1, SVG Export Plug-In . SVG Version: 6.00 Build 0)  -->
<svg version="1.1" id="Слой_1" xmlns="http://www.w3.org/2000/svg" xmlns:xlink="http://www.w3.org/1999/xlink" x="0px" y="0px"
	 viewBox="0 0 18 12" style="enable-background:new 0 0 18 12;" xml:space="preserve">
<style type="text/css">
	.st0{fill:#FEB918;}
</style>
<path class="st0" d="M11.3,11.9c-0.2,0-0.4-0.1-0.6-0.2c-0.1-0.1-0.1-0.2-0.2-0.3c0-0.1-0.1-0.2-0.1-0.3c0-0.1,0-0.2,0.1-0.3
	c0-0.1,0.1-0.2,0.2-0.3l3.5-3.3H0.9c-0.1,0-0.2,0-0.3,0C0.5,7.1,0.4,7.1,0.3,7C0.3,6.9,0.2,6.8,0.2,6.7c0-0.1-0.1-0.2-0.1-0.3
	c0-0.1,0-0.2,0.1-0.3c0-0.1,0.1-0.2,0.2-0.3c0.1-0.1,0.2-0.1,0.3-0.2c0.1,0,0.2-0.1,0.3,0l13.2,0l-3.5-3.3c-0.1-0.1-0.1-0.2-0.2-0.3
	c0-0.1-0.1-0.2-0.1-0.3s0-0.2,0.1-0.3c0-0.1,0.1-0.2,0.2-0.3c0.3-0.3,0.8-0.3,1.1,0l5,4.7C16.9,5.9,17,6,17,6.1
	c0,0.1,0.1,0.2,0.1,0.3c0,0.1,0,0.2-0.1,0.3c0,0.1-0.1,0.2-0.2,0.3l-5,4.7C11.7,11.8,11.5,11.9,11.3,11.9z M0.9,6.6L0.9,6.6L0.9,6.6
	L0.9,6.6z"/>
</svg>
