<?xml version="1.0" encoding="utf-8"?>
<!-- Generator: Adobe Illustrator 27.1.1, SVG Export Plug-In . SVG Version: 6.00 Build 0)  -->
<svg version="1.1" id="Слой_1" xmlns="http://www.w3.org/2000/svg" xmlns:xlink="http://www.w3.org/1999/xlink" x="0px" y="0px"
	 viewBox="0 0 18 12" style="enable-background:new 0 0 18 12;" xml:space="preserve">
<style type="text/css">
	.st0{fill:#FEB918;}
</style>
<path class="st0" d="M6.7,11.9c-0.2,0-0.4-0.1-0.6-0.2L1.2,7C1.1,6.9,1,6.8,1,6.7c0-0.1-0.1-0.2-0.1-0.3c0-0.1,0-0.2,0.1-0.3
	C1,6,1.1,5.9,1.2,5.8l5-4.7c0.3-0.3,0.8-0.3,1.1,0c0.1,0.1,0.1,0.2,0.2,0.3c0,0.1,0.1,0.2,0.1,0.3s0,0.2-0.1,0.3
	c0,0.1-0.1,0.2-0.2,0.3L3.8,5.6h13.3c0.1,0,0.2,0,0.3,0c0.1,0,0.2,0.1,0.3,0.2c0.1,0.1,0.1,0.2,0.2,0.3c0,0.1,0.1,0.2,0.1,0.3
	c0,0.1,0,0.2-0.1,0.3c0,0.1-0.1,0.2-0.2,0.3c-0.1,0.1-0.2,0.1-0.3,0.2c-0.1,0-0.2,0.1-0.3,0l-13.2,0l3.5,3.3
	c0.1,0.1,0.1,0.2,0.2,0.3c0,0.1,0.1,0.2,0.1,0.3c0,0.1,0,0.2-0.1,0.3c0,0.1-0.1,0.2-0.2,0.3C7.2,11.8,7,11.9,6.7,11.9z"/>
</svg>
