<svg width="213" height="44" viewBox="0 0 213 44" fill="none" xmlns="http://www.w3.org/2000/svg">
<path fill-rule="evenodd" clip-rule="evenodd" d="M0.371967 1.50228L0.253052 1.43475L0.746877 0.565186L0.866152 0.632922C1.54099 1.01617 2.2213 1.40252 2.90732 1.79171L2.41387 2.66148C1.72752 2.2721 1.0469 1.88558 0.371967 1.50228ZM11.1439 7.56665C9.66116 6.74559 8.20411 5.93081 6.77169 5.12499L7.26198 4.25344C8.69292 5.05842 10.148 5.87208 11.6283 6.69183L11.1439 7.56665ZM19.9532 12.3346C18.4563 11.5457 16.9843 10.7579 15.5361 9.97346L16.0124 9.09418C17.4576 9.87703 18.9263 10.663 20.4194 11.4499L19.9532 12.3346ZM28.8765 16.8846C27.3603 16.139 25.868 15.3905 24.3989 14.6409L24.8534 13.7502C26.3184 14.4976 27.8062 15.2439 29.3178 15.9873L28.8765 16.8846ZM37.9364 21.1583C36.3973 20.464 34.8815 19.7637 33.3884 19.059L33.8152 18.1547C35.3034 18.857 36.8139 19.5549 38.3476 20.2468L37.9364 21.1583ZM47.1455 25.112C45.5818 24.4752 44.0408 23.8298 42.5218 23.1774L42.9164 22.2586C44.4298 22.9086 45.965 23.5515 47.5227 24.1859L47.1455 25.112ZM56.5106 28.7131C54.9214 28.1382 53.3541 27.5529 51.8083 26.9583L52.1673 26.025C53.707 26.6172 55.268 27.2002 56.8508 27.7728L56.5106 28.7131ZM65.9981 31.9265C64.3921 31.4194 62.8073 30.9004 61.2432 30.3706L61.564 29.4235C63.1217 29.9511 64.6999 30.468 66.2992 30.9729L65.9981 31.9265ZM75.6163 34.7424C73.9868 34.3025 72.3779 33.8494 70.7891 33.3842L71.0701 32.4245C72.6522 32.8878 74.2544 33.3389 75.8769 33.777L75.6163 34.7424ZM212.106 34.9886C211.277 35.1689 210.45 35.3459 209.626 35.5197L209.42 34.5412C210.242 34.3679 211.066 34.1913 211.894 34.0114L212.106 34.9886ZM85.3542 37.151C83.7099 36.7811 82.0853 36.3972 80.48 36.0002L80.7201 35.0295C82.3186 35.4247 83.9363 35.807 85.5737 36.1753L85.3542 37.151ZM204.716 36.5233C203.067 36.8495 201.43 37.1625 199.804 37.4625L199.622 36.4791C201.244 36.1799 202.877 35.8677 204.522 35.5423L204.716 36.5233ZM95.1713 39.1428C93.5107 38.842 91.8691 38.5266 90.2462 38.1973L90.4451 37.2173C92.0612 37.5452 93.6959 37.8593 95.3495 38.1588L95.1713 39.1428ZM194.865 38.3401C193.208 38.6232 191.563 38.8926 189.93 39.1488L189.775 38.1609C191.404 37.9054 193.044 37.6367 194.696 37.3544L194.865 38.3401ZM184.97 39.8913C183.304 40.1288 181.651 40.3522 180.01 40.5621L179.883 39.5701C181.519 39.3609 183.168 39.1381 184.829 38.9013L184.97 39.8913ZM105.07 40.7243C103.405 40.4935 101.759 40.2477 100.131 39.9877L100.288 39.0002C101.91 39.2591 103.55 39.5039 105.207 39.7338L105.07 40.7243ZM175.037 41.1606C173.362 41.3497 171.699 41.5244 170.05 41.6851L169.953 40.6899C171.597 40.5296 173.255 40.3554 174.925 40.1669L175.037 41.1606ZM115.039 41.9015C113.354 41.7368 111.687 41.5567 110.037 41.3619L110.155 40.3688C111.798 40.5628 113.458 40.7422 115.136 40.9063L115.039 41.9015ZM165.074 42.1311C163.389 42.2688 161.718 42.3918 160.06 42.5004L159.995 41.5026C161.647 41.3943 163.313 41.2717 164.992 41.1344L165.074 42.1311ZM125.012 42.68C123.33 42.5814 121.665 42.4675 120.016 42.3389L120.094 41.3419C121.736 41.47 123.395 41.5835 125.071 41.6817L125.012 42.68ZM155.09 42.7855C153.397 42.8687 151.718 42.9368 150.053 42.9903L150.021 41.9908C151.68 41.9375 153.353 41.8697 155.041 41.7867L155.09 42.7855ZM135.025 43.0777C133.349 43.0423 131.688 42.9919 130.043 42.9268L130.083 41.9276C131.722 41.9924 133.376 42.0427 135.047 42.0779L135.025 43.0777ZM145.059 43.1076C143.371 43.1327 141.699 43.1425 140.042 43.1377L140.045 42.1377C141.696 42.1425 143.362 42.1327 145.044 42.1078L145.059 43.1076Z" fill="#667085"/>
</svg>
