<svg width="213" height="44" viewBox="0 0 213 44" fill="none" xmlns="http://www.w3.org/2000/svg">
<path fill-rule="evenodd" clip-rule="evenodd" d="M0.872028 42.1383L0.753113 42.2059L1.24694 43.0754L1.36621 43.0077C2.04106 42.6245 2.72136 42.2381 3.40738 41.8489L2.91393 40.9791C2.22758 41.3685 1.54696 41.755 0.872028 42.1383ZM11.6439 36.074C10.1612 36.895 8.70417 37.7098 7.27175 38.5156L7.76204 39.3872C9.19298 38.5822 10.648 37.7685 12.1284 36.9488L11.6439 36.074ZM20.4532 31.306C18.9564 32.0949 17.4843 32.8827 16.0362 33.6672L16.5125 34.5464C17.9576 33.7636 19.4263 32.9776 20.9195 32.1907L20.4532 31.306ZM29.3766 26.756C27.8603 27.5016 26.3681 28.2502 24.899 28.9997L25.3535 29.8905C26.8184 29.143 28.3063 28.3967 29.8179 27.6534L29.3766 26.756ZM38.4364 22.4823C36.8974 23.1766 35.3816 23.8769 33.8885 24.5816L34.3153 25.4859C35.8034 24.7836 37.314 24.0857 38.8476 23.3939L38.4364 22.4823ZM47.6456 18.5286C46.0819 19.1655 44.5408 19.8108 43.0218 20.4632L43.4164 21.382C44.9299 20.7321 46.4651 20.0892 48.0228 19.4548L47.6456 18.5286ZM57.0107 14.9275C55.4214 15.5024 53.8542 16.0878 52.3084 16.6823L52.6674 17.6157C54.2071 17.0234 55.768 16.4404 57.3508 15.8679L57.0107 14.9275ZM66.4982 11.7141C64.8922 12.2212 63.3074 12.7402 61.7433 13.27L62.0641 14.2171C63.6218 13.6895 65.2 13.1727 66.7993 12.6677L66.4982 11.7141ZM76.1164 8.89821C74.4869 9.33812 72.878 9.79119 71.2892 10.2564L71.5702 11.2161C73.1523 10.7529 74.7544 10.3017 76.377 9.86364L76.1164 8.89821ZM212.606 8.65207C211.777 8.47175 210.95 8.29472 210.126 8.12096L209.92 9.09944C210.742 9.27277 211.566 9.44936 212.394 9.62925L212.606 8.65207ZM85.8543 6.48968C84.2099 6.85956 82.5853 7.24344 80.9801 7.64042L81.2201 8.61118C82.8186 8.21588 84.4363 7.83362 86.0737 7.4653L85.8543 6.48968ZM205.216 7.11735C203.567 6.79115 201.93 6.47815 200.304 6.1781L200.122 7.16151C201.744 7.46077 203.377 7.77296 205.022 8.09834L205.216 7.11735ZM95.6714 4.49781C94.0108 4.7986 92.3692 5.11404 90.7463 5.44333L90.9452 6.42336C92.5612 6.09546 94.1959 5.78133 95.8496 5.48179L95.6714 4.49781ZM195.365 5.30052C193.708 5.01748 192.063 4.74801 190.43 4.49183L190.275 5.47975C191.904 5.73522 193.544 6.00396 195.197 6.28624L195.365 5.30052ZM185.47 3.74929C183.804 3.51186 182.151 3.28839 180.51 3.07856L180.383 4.07049C182.019 4.2797 183.668 4.50253 185.329 4.73929L185.47 3.74929ZM105.57 2.91632C103.906 3.14717 102.259 3.39294 100.631 3.65292L100.789 4.64042C102.41 4.38151 104.05 4.13675 105.707 3.90684L105.57 2.91632ZM175.537 2.47999C173.862 2.29092 172.199 2.1162 170.55 1.95549L170.453 2.95077C172.097 3.11099 173.755 3.28518 175.425 3.47369L175.537 2.47999ZM115.539 1.73912C113.854 1.90383 112.187 2.08391 110.537 2.27871L110.655 3.27181C112.298 3.0778 113.958 2.89843 115.636 2.73437L115.539 1.73912ZM165.574 1.50954C163.889 1.37183 162.218 1.24884 160.561 1.14022L160.495 2.13808C162.147 2.24635 163.813 2.36894 165.492 2.50622L165.574 1.50954ZM125.512 0.96064C123.83 1.05924 122.165 1.17315 120.516 1.30177L120.594 2.29874C122.236 2.17062 123.895 2.05715 125.571 1.95892L125.512 0.96064ZM155.59 0.855106C153.897 0.7719 152.218 0.703789 150.553 0.650352L150.521 1.64984C152.18 1.70309 153.853 1.77097 155.541 1.8539L155.59 0.855106ZM135.526 0.562965C133.849 0.598316 132.189 0.648773 130.544 0.713833L130.583 1.71305C132.222 1.64824 133.876 1.59796 135.547 1.56274L135.526 0.562965ZM145.559 0.532986C143.871 0.507954 142.199 0.498093 140.542 0.50293L140.545 1.50293C142.196 1.4981 143.862 1.50793 145.544 1.53288L145.559 0.532986Z" fill="#667085"/>
</svg>
